<svg width="41" height="41" viewBox="0 0 41 41" fill="none" xmlns="http://www.w3.org/2000/svg">
<path fill-rule="evenodd" clip-rule="evenodd" d="M2.5625 20.5C2.5625 25.2573 4.45234 29.8198 7.81627 33.1837C11.1802 36.5477 15.7427 38.4375 20.5 38.4375C25.2573 38.4375 29.8198 36.5477 33.1837 33.1837C36.5477 29.8198 38.4375 25.2573 38.4375 20.5C38.4375 15.7427 36.5477 11.1802 33.1837 7.81627C29.8198 4.45234 25.2573 2.5625 20.5 2.5625C15.7427 2.5625 11.1802 4.45234 7.81627 7.81627C4.45234 11.1802 2.5625 15.7427 2.5625 20.5V20.5ZM41 20.5C41 25.9369 38.8402 31.1512 34.9957 34.9957C31.1512 38.8402 25.9369 41 20.5 41C15.0631 41 9.84881 38.8402 6.00431 34.9957C2.15982 31.1512 0 25.9369 0 20.5C0 15.0631 2.15982 9.84881 6.00431 6.00431C9.84881 2.15982 15.0631 0 20.5 0C25.9369 0 31.1512 2.15982 34.9957 6.00431C38.8402 9.84881 41 15.0631 41 20.5V20.5ZM29.4688 19.2188C29.8086 19.2188 30.1345 19.3537 30.3747 19.594C30.615 19.8343 30.75 20.1602 30.75 20.5C30.75 20.8398 30.615 21.1657 30.3747 21.406C30.1345 21.6463 29.8086 21.7812 29.4688 21.7812H14.6242L20.1259 27.2804C20.245 27.3995 20.3395 27.5409 20.404 27.6966C20.4684 27.8522 20.5016 28.019 20.5016 28.1875C20.5016 28.356 20.4684 28.5228 20.404 28.6784C20.3395 28.8341 20.245 28.9755 20.1259 29.0946C20.0067 29.2138 19.8653 29.3082 19.7097 29.3727C19.554 29.4372 19.3872 29.4704 19.2188 29.4704C19.0503 29.4704 18.8835 29.4372 18.7278 29.3727C18.5722 29.3082 18.4308 29.2138 18.3116 29.0946L10.6241 21.4071C10.5048 21.2881 10.4101 21.1467 10.3455 20.9911C10.281 20.8354 10.2477 20.6685 10.2477 20.5C10.2477 20.3315 10.281 20.1646 10.3455 20.0089C10.4101 19.8533 10.5048 19.7119 10.6241 19.5929L18.3116 11.9054C18.5522 11.6648 18.8785 11.5296 19.2188 11.5296C19.559 11.5296 19.8853 11.6648 20.1259 11.9054C20.3665 12.146 20.5016 12.4723 20.5016 12.8125C20.5016 13.1527 20.3665 13.479 20.1259 13.7196L14.6242 19.2188H29.4688Z" fill="url(#paint0_linear)"/>
<defs>
<linearGradient id="paint0_linear" x1="20.5" y1="0" x2="20.5" y2="41" gradientUnits="userSpaceOnUse">
<stop/>
<stop offset="0.796875" stop-color="#434343"/>
</linearGradient>
</defs>
</svg>
