<svg width="41" height="41" viewBox="0 0 41 41" fill="none" xmlns="http://www.w3.org/2000/svg">
<path fill-rule="evenodd" clip-rule="evenodd" d="M38.4375 20.5C38.4375 15.7427 36.5477 11.1802 33.1837 7.81627C29.8198 4.45234 25.2573 2.5625 20.5 2.5625C15.7427 2.5625 11.1802 4.45234 7.81627 7.81627C4.45234 11.1802 2.5625 15.7427 2.5625 20.5C2.5625 25.2573 4.45234 29.8198 7.81627 33.1837C11.1802 36.5477 15.7427 38.4375 20.5 38.4375C25.2573 38.4375 29.8198 36.5477 33.1837 33.1837C36.5477 29.8198 38.4375 25.2573 38.4375 20.5V20.5ZM0 20.5C0 15.0631 2.15981 9.84881 6.00431 6.00431C9.84881 2.15981 15.0631 0 20.5 0C25.9369 0 31.1512 2.15981 34.9957 6.00431C38.8402 9.84881 41 15.0631 41 20.5C41 25.9369 38.8402 31.1512 34.9957 34.9957C31.1512 38.8402 25.9369 41 20.5 41C15.0631 41 9.84881 38.8402 6.00431 34.9957C2.15981 31.1512 0 25.9369 0 20.5V20.5ZM11.5312 21.7812C11.1914 21.7812 10.8655 21.6463 10.6253 21.406C10.385 21.1657 10.25 20.8398 10.25 20.5C10.25 20.1602 10.385 19.8343 10.6253 19.594C10.8655 19.3537 11.1914 19.2188 11.5312 19.2188H26.3758L20.8741 13.7196C20.755 13.6005 20.6605 13.4591 20.596 13.3034C20.5316 13.1478 20.4984 12.981 20.4984 12.8125C20.4984 12.644 20.5316 12.4772 20.596 12.3216C20.6605 12.1659 20.755 12.0245 20.8741 11.9054C20.9933 11.7862 21.1347 11.6918 21.2903 11.6273C21.446 11.5628 21.6128 11.5296 21.7812 11.5296C21.9497 11.5296 22.1165 11.5628 22.2722 11.6273C22.4278 11.6918 22.5692 11.7862 22.6884 11.9054L30.3759 19.5929C30.4952 19.7119 30.5899 19.8533 30.6545 20.0089C30.719 20.1646 30.7523 20.3315 30.7523 20.5C30.7523 20.6685 30.719 20.8354 30.6545 20.9911C30.5899 21.1467 30.4952 21.2881 30.3759 21.4071L22.6884 29.0946C22.4478 29.3352 22.1215 29.4704 21.7812 29.4704C21.441 29.4704 21.1147 29.3352 20.8741 29.0946C20.6335 28.854 20.4984 28.5277 20.4984 28.1875C20.4984 27.8473 20.6335 27.521 20.8741 27.2804L26.3758 21.7812H11.5312Z" fill="url(#paint0_linear)"/>
<defs>
<linearGradient id="paint0_linear" x1="20.5" y1="41" x2="20.5" y2="0" gradientUnits="userSpaceOnUse">
<stop/>
<stop offset="0.796875" stop-color="#434343"/>
</linearGradient>
</defs>
</svg>
