<svg width="19" height="16" viewBox="0 0 19 16" fill="none" xmlns="http://www.w3.org/2000/svg">
<path d="M8.57648 12.2946C8.57648 11.2888 8.31372 10.4453 7.7882 9.7607C7.41577 9.28981 6.91081 8.98007 6.2722 8.83263C5.64386 8.68633 5.0498 8.67605 4.51286 8.80063C4.33007 7.71484 4.6271 6.56504 5.3811 5.34667C6.13511 4.12944 7.11188 3.2128 8.30344 2.60019L6.4984 0C5.58445 0.452604 4.71621 1.02636 3.91651 1.72012C3.10538 2.41389 2.38565 3.21166 1.74589 4.11344C1.10613 5.01522 0.626312 6.03357 0.317857 7.18794C0.00940073 8.34231 -0.0774239 9.51954 0.0699495 10.7311C0.261878 12.3312 0.778256 13.6113 1.61908 14.5599C2.45877 15.52 3.50638 16 4.75848 16C5.86092 16 6.77601 15.6685 7.50031 14.9965C8.21775 14.3382 8.57419 13.4364 8.57419 12.29L8.57648 12.2934V12.2946ZM19 12.2946C19 11.2888 18.7372 10.4453 18.2117 9.7607C17.8393 9.28066 17.3321 8.96978 16.6957 8.82692C16.056 8.68519 15.4688 8.67833 14.9364 8.80177C14.7536 7.72741 15.0392 6.57304 15.7932 5.3501C16.5472 4.13858 17.5228 3.22423 18.7144 2.60704L16.9139 0C16 0.452604 15.1374 1.02636 14.332 1.72012C13.5135 2.42417 12.7866 3.22822 12.1683 4.11344C11.5331 5.01636 11.0601 6.03357 10.7517 7.18794C10.4395 8.34161 10.3553 9.54512 10.5038 10.7311C10.6923 12.3312 11.2063 13.6113 12.046 14.5599C12.8823 15.512 13.9265 15.9886 15.1786 15.9886C16.2833 15.9886 17.1984 15.6571 17.9227 14.9874C18.639 14.329 18.9989 13.4272 18.9989 12.2809V12.2923L19 12.2946Z" fill="white"/>
</svg>
