<svg width="107" height="91" viewBox="0 0 107 91" fill="none" xmlns="http://www.w3.org/2000/svg">
<path d="M48.2991 69.9255C48.2991 64.2051 46.8194 59.4077 43.8599 55.514C41.7625 52.8358 38.9188 51.0741 35.3224 50.2356C31.7838 49.4035 28.4383 49.345 25.4145 50.0536C24.3851 43.8781 26.0579 37.3387 30.3041 30.4092C34.5503 23.4862 40.0511 18.2728 46.7615 14.7886L36.5962 0C31.4493 2.57418 26.5597 5.83742 22.0561 9.7832C17.4882 13.729 13.435 18.2663 9.83213 23.3952C6.22927 28.524 3.52713 34.3159 1.79003 40.8814C0.0529409 47.4469 -0.436019 54.1424 0.393926 61.0329C1.47478 70.1335 4.38281 77.414 9.118 82.8094C13.8468 88.2698 19.7464 91 26.7977 91C33.0062 91 38.1596 89.1149 42.2386 85.2926C46.2789 81.5483 48.2862 76.4195 48.2862 69.8995L48.2991 69.919V69.9255ZM107 69.9255C107 64.2051 105.52 59.4077 102.561 55.514C100.463 52.7838 97.6068 51.0156 94.0233 50.2031C90.4204 49.397 87.1135 49.358 84.1154 50.0601C83.086 43.9496 84.6944 37.3842 88.9407 30.4287C93.1869 23.5382 98.6813 18.3378 105.392 14.8276L95.2521 0C90.1052 2.57418 85.2477 5.83742 80.712 9.7832C76.1024 13.7875 72.0086 18.3605 68.5266 23.3952C64.9495 28.5305 62.2859 34.3159 60.5488 40.8814C58.7909 47.4429 58.3166 54.2879 59.1527 61.0329C60.2143 70.1335 63.1094 77.414 67.8382 82.8094C72.5476 88.2243 78.428 90.935 85.4793 90.935C91.7007 90.935 96.8541 89.0499 100.933 85.2406C104.967 81.4963 106.994 76.3675 106.994 69.8475V69.9125L107 69.9255Z" fill="#929292"/>
</svg>
